<?xml version="1.0" encoding="UTF-8" standalone="no"?>
<svg
   xmlns:dc="http://purl.org/dc/elements/1.1/"
   xmlns:cc="http://creativecommons.org/ns#"
   xmlns:rdf="http://www.w3.org/1999/02/22-rdf-syntax-ns#"
   xmlns:svg="http://www.w3.org/2000/svg"
   xmlns="http://www.w3.org/2000/svg"
   xmlns:sodipodi="http://sodipodi.sourceforge.net/DTD/sodipodi-0.dtd"
   xmlns:inkscape="http://www.inkscape.org/namespaces/inkscape"
   width="730.60248mm"
   height="289.42157mm"
   viewBox="0 0 730.60248 289.42157"
   version="1.1"
   id="svg8"
   inkscape:version="1.0 (4035a4fb49, 2020-05-01)"
   sodipodi:docname="aware.svg">
  <defs
     id="defs2" />
  <sodipodi:namedview
     fit-margin-bottom="0"
     fit-margin-right="0"
     fit-margin-left="0"
     fit-margin-top="0"
     inkscape:object-nodes="true"
     inkscape:snap-to-guides="false"
     id="base"
     pagecolor="#ffffff"
     bordercolor="#666666"
     borderopacity="1.0"
     inkscape:pageopacity="0.0"
     inkscape:pageshadow="2"
     inkscape:zoom="0.18448745"
     inkscape:cx="728.70736"
     inkscape:cy="1852.0518"
     inkscape:document-units="mm"
     inkscape:current-layer="layer1"
     inkscape:document-rotation="0"
     showgrid="false"
     showborder="true"
     showguides="true"
     inkscape:guide-bbox="true"
     inkscape:window-width="1920"
     inkscape:window-height="1050"
     inkscape:window-x="0"
     inkscape:window-y="30"
     inkscape:window-maximized="1"
     inkscape:snap-global="false" />
  <metadata
     id="metadata5">
    <rdf:RDF>
      <cc:Work
         rdf:about="">
        <dc:format>image/svg+xml</dc:format>
        <dc:type
           rdf:resource="http://purl.org/dc/dcmitype/StillImage" />
        <dc:title></dc:title>
      </cc:Work>
    </rdf:RDF>
  </metadata>
  <g
     transform="translate(3623.9647,2048.8236)"
     inkscape:label="Layer 1"
     inkscape:groupmode="layer"
     id="layer1">
    <g
       id="g4417"
       transform="translate(-432.25331)">
      <path
         d="m -3124.8793,-2007.4547 c 18.4539,0 33.2162,6.0641 44.287,18.1886 11.0708,11.8629 16.6081,27.8134 16.6081,47.8477 v 135.794 c 0,2.6528 -1.3077,3.953 -3.9531,3.953 h -20.1688 c -2.6528,0 -3.9531,-1.3077 -3.9531,-3.953 v -14.3962 c 0,-0.5231 -0.3736,-0.7846 -0.7846,-0.7846 -0.3736,-0.3737 -0.6725,0 -1.1956,0.411 -9.7557,12.9165 -24.3872,19.3767 -43.8947,19.3767 -14.497,0 -27.1521,-4.0876 -37.9613,-12.259 -10.544,-8.4367 -15.816,-23.199 -15.816,-44.2907 0,-22.4069 6.4601,-38.7497 19.3767,-49.0321 12.9166,-10.544 29.9207,-15.816 51.0087,-15.816 h 27.6826 c 1.0462,0 1.5693,-0.5231 1.5693,-1.5693 v -15.4236 c 0,-13.1819 -3.0265,-23.7259 -9.0943,-31.6357 -6.0641,-7.9099 -14.2355,-11.863 -24.5179,-11.863 -7.9099,0 -14.7624,2.6529 -20.5612,7.9099 -5.5373,5.272 -8.8327,11.9974 -9.8864,20.1688 0,2.6528 -1.3077,3.9531 -3.953,3.9531 l -22.1454,-0.411 c -1.3077,0 -2.3913,-0.411 -3.1759,-1.1956 -0.5231,-0.7847 -0.6352,-1.7188 -0.3736,-2.7649 1.3077,-15.5545 7.6483,-28.075 18.9806,-37.5653 11.3324,-9.7556 25.3064,-14.6316 41.9144,-14.6316 z m -7.1177,181.8968 c 10.8092,0 20.1651,-3.4374 28.0749,-10.2824 7.9099,-7.1178 11.8629,-16.8696 11.8629,-29.2594 v -33.2161 c 0,-1.0462 -0.5231,-1.5693 -1.5692,-1.5693 h -28.075 c -12.655,0 -22.6722,3.4374 -30.0552,10.2824 -7.3793,6.591 -11.0708,16.4773 -11.0708,29.6555 0,11.6013 2.7649,20.2996 8.3022,26.0984 5.8025,5.5372 13.3163,8.3059 22.5414,8.3059 z"
         style="font-style:normal;font-variant:normal;font-weight:normal;font-stretch:normal;font-size:10.5833px;line-height:1.25;font-family:'Barlow Condensed';-inkscape-font-specification:'Barlow Condensed, Normal';font-variant-ligatures:normal;font-variant-caps:normal;font-variant-numeric:normal;font-variant-east-asian:normal;fill:#00223b;fill-opacity:1;stroke:none;stroke-width:9.88575"
         id="path1422"
         sodipodi:nodetypes="scssssssccscscsssssscccccccssscsssscscss" />
      <path
         sodipodi:nodetypes="cccsssccsccsssssccszsccssscscccc"
         id="path4404"
         style="font-style:normal;font-variant:normal;font-weight:normal;font-stretch:normal;font-size:10.5833px;line-height:1.25;font-family:'Barlow Condensed';-inkscape-font-specification:'Barlow Condensed, Normal';font-variant-ligatures:normal;font-variant-caps:normal;font-variant-numeric:normal;font-variant-east-asian:normal;fill:#c83838;fill-opacity:1;stroke:none;stroke-width:9.88575"
         d="m -3005.7046,-1759.402 c -2.3539,0 -3.8148,-1.1956 -4.3491,-3.5495 l -39.4895,-190.8081 v -0.7846 c 0,-2.3539 1.1956,-3.5495 3.5495,-3.5495 h 19.3767 c 2.6528,0 4.0839,1.1956 4.3491,3.5495 l 27.8957,129.3301 c 0.3736,0.5231 0.523,0.7846 0.7846,0.7846 0.3736,0 0.5231,-0.3736 0.7846,-0.7846 l 25.4969,-92.5681 c 0.5231,-2.3539 1.9803,-3.5496 4.3491,-3.5496 h 24.4582 c 2.6154,0 3.2506,1.4946 4.3491,3.5496 l 27.7237,51.9278 c 0.3736,0.6352 0.5231,0.7846 0.7846,0.7846 0.3737,0 0.5231,-0.3736 0.7847,-0.7846 l 40.4572,-151.7221 c 0.3736,-1.1956 -13.1594,-3.9568 -12.0759,-5.7876 1.0835,-1.8308 33.7804,-25.9452 35.3422,-25.452 1.5692,0.4857 14.1383,37.3112 12.3337,40.8383 -0.411,0.822 -11.919,-3.7961 -12.1805,-2.3912 l -48.2027,206.6613 c -0.3737,2.3539 -1.5319,2.5034 -4.1511,2.5034 h -20.1688 c -2.3539,0 -3.288,-1.3825 -4.3492,-3.5496 l -31.5161,-64.7995 c -0.3736,-0.7846 -0.5231,-1.1956 -0.7846,-1.1956 -0.3737,0 -0.5231,0.411 -0.7847,1.1956 l -30.6605,106.5944 c -0.3736,2.3539 -1.7187,3.5495 -4.3491,3.5495 z" />
      <path
         d="m -2772.1975,-2007.4547 c 18.4538,0 33.2161,6.0641 44.2869,18.1886 11.0709,11.8629 16.6081,27.8134 16.6081,47.8477 v 135.8911 c 0,2.6528 -1.3077,3.9531 -3.953,3.9531 h -20.1689 c -2.6154,0 -3.953,-1.3077 -3.953,-3.9531 v -14.4933 c 0,-0.5231 -0.3737,-0.7846 -0.7847,-0.7846 -0.3736,-0.3737 -0.6725,0 -1.1956,0.411 -9.7556,12.9165 -24.3872,19.3767 -43.8947,19.3767 -14.497,0 -27.152,-4.0876 -37.9613,-12.259 -10.544,-8.4367 -15.816,-23.199 -15.816,-44.2907 0,-22.4069 6.4602,-38.7497 19.3768,-49.0321 12.9165,-10.544 29.9207,-15.816 51.0086,-15.816 h 27.6827 c 1.0461,0 1.5692,-0.5231 1.5692,-1.5693 v -15.4236 c 0,-13.1819 -3.0264,-23.7259 -9.0943,-31.6357 -6.0641,-7.9099 -14.2355,-11.863 -24.5179,-11.863 -7.9099,0 -14.7623,2.6529 -20.5611,7.9099 -5.5373,5.272 -8.8328,11.9974 -9.8864,20.1688 0,2.6528 -1.3078,3.9531 -3.9531,3.9531 l -22.1453,-0.411 c -1.3078,0 -2.3913,-0.411 -3.1759,-1.1956 -0.5231,-0.7847 -0.6726,-1.7188 -0.411,-2.7649 1.3077,-15.5545 7.6483,-28.075 18.9806,-37.5653 11.3324,-9.7556 25.3063,-14.6316 41.9144,-14.6316 z m -7.1178,181.8968 c 10.8093,0 20.1651,-3.4374 28.075,-10.2824 7.9098,-7.1178 11.8629,-16.8696 11.8629,-29.2594 v -33.2161 c 0,-1.0462 -0.5231,-1.5693 -1.5693,-1.5693 h -28.0749 c -12.6551,0 -22.6722,3.4374 -30.0553,10.2824 -7.3793,6.591 -11.0708,16.4773 -11.0708,29.6555 0,11.6013 2.7649,20.2996 8.3022,26.0984 5.8026,5.5372 13.3164,8.3059 22.5414,8.3059 z"
         style="font-style:normal;font-variant:normal;font-weight:normal;font-stretch:normal;font-size:10.5833px;line-height:1.25;font-family:'Barlow Condensed';-inkscape-font-specification:'Barlow Condensed, Normal';font-variant-ligatures:normal;font-variant-caps:normal;font-variant-numeric:normal;font-variant-east-asian:normal;fill:#00223b;fill-opacity:1;stroke:none;stroke-width:9.88575"
         id="path1426"
         sodipodi:nodetypes="scssssssccscscsssssscccccccssscsssscscss" />
      <path
         d="m -2620.057,-2006.2703 c 6.5909,0 12.259,1.4572 17.0041,4.3491 1.8308,1.0462 2.5034,2.7649 1.9803,5.1413 l -4.7452,20.5648 c -0.3736,2.354 -1.8682,3.1759 -4.7451,2.3913 -3.1759,-1.6066 -7.1178,-2.3913 -11.863,-2.3913 -2.1297,0 -3.699,0 -4.7451,0.411 -9.4904,0.5231 -17.2657,5.5336 -23.3298,15.0277 -6.0641,9.225 -9.0943,20.5611 -9.0943,34.0082 v 121.069 c 0,2.6529 -1.3077,3.9531 -3.9568,3.9531 h -20.1651 c -2.6528,0 -3.953,-1.3077 -3.953,-3.9531 v -194.6191 c 0,-2.6528 1.3077,-3.9568 3.953,-3.9568 h 20.1651 c 2.6528,0 3.9568,1.3078 3.9568,3.9568 v 23.7259 c 0,0.7846 0,1.1956 0.411,1.1956 0.5231,0 1.0462,-0.3736 1.5693,-0.7846 7.6445,-20.0381 20.1651,-30.0552 37.5653,-30.0552 z"
         style="font-style:normal;font-variant:normal;font-weight:normal;font-stretch:normal;font-size:10.5833px;line-height:1.25;font-family:'Barlow Condensed';-inkscape-font-specification:'Barlow Condensed, Normal';font-variant-ligatures:normal;font-variant-caps:normal;font-variant-numeric:normal;font-variant-east-asian:normal;fill:#00223b;fill-opacity:1;stroke:none;stroke-width:9.88575"
         id="path1428"
         sodipodi:nodetypes="cccccsccsssssssssssccc" />
      <path
         d="m -2461.1163,-1897.5275 q 0,3.9568 -3.9568,3.9568 h -90.1545 q -1.5692,0 -1.5692,1.5693 v 28.867 q 0,16.6081 9.0942,27.2829 9.4904,10.2824 24.518,10.2824 12.655,0 21.3532,-7.5138 9.0943,-7.9098 11.863,-20.1651 1.1956,-3.5495 4.3491,-3.5495 l 19.7727,0.7846 q 1.5693,0 2.7649,1.1957 1.1957,1.1956 0.7847,3.1759 -3.1759,23.3297 -19.3767,37.1692 -15.816,13.4471 -41.5184,13.4471 -28.0749,0 -45.0791,-16.6081 -16.6081,-16.608 -16.6081,-43.8946 v -85.413 q 0,-26.8868 16.6081,-43.4949 17.0042,-17.0041 45.0791,-17.0041 28.471,0 45.0791,17.0041 17.0041,16.6081 17.0041,43.4949 z m -62.0833,-85.413 q -15.0276,0 -24.5179,10.6785 -9.0943,10.2825 -9.0943,27.2829 v 26.4944 q 0,1.5693 1.5693,1.5693 h 64.8481 q 1.5693,0 1.5693,-1.5693 v -26.4944 q 0,-17.0004 -9.4904,-27.2829 -9.4903,-10.6785 -24.9102,-10.6785 z"
         style="font-style:normal;font-variant:normal;font-weight:normal;font-stretch:normal;font-size:10.5833px;line-height:1.25;font-family:'Barlow Condensed';-inkscape-font-specification:'Barlow Condensed, Normal';font-variant-ligatures:normal;font-variant-caps:normal;font-variant-numeric:normal;font-variant-east-asian:normal;fill:#00223b;fill-opacity:1;stroke:none;stroke-width:9.88575"
         id="path1430" />
    </g>
  </g>
</svg>
