<?xml version="1.0" encoding="UTF-8" standalone="no"?>
<svg
   xmlns:dc="http://purl.org/dc/elements/1.1/"
   xmlns:cc="http://creativecommons.org/ns#"
   xmlns:rdf="http://www.w3.org/1999/02/22-rdf-syntax-ns#"
   xmlns:svg="http://www.w3.org/2000/svg"
   xmlns="http://www.w3.org/2000/svg"
   xmlns:sodipodi="http://sodipodi.sourceforge.net/DTD/sodipodi-0.dtd"
   xmlns:inkscape="http://www.inkscape.org/namespaces/inkscape"
   width="400.97256mm"
   height="401.69678mm"
   viewBox="0 0 400.97256 401.69678"
   version="1.1"
   id="svg8"
   inkscape:version="1.0 (4035a4fb49, 2020-05-01)"
   sodipodi:docname="logo.svg">
  <defs
     id="defs2" />
  <sodipodi:namedview
     fit-margin-bottom="0"
     fit-margin-right="0"
     fit-margin-left="0"
     fit-margin-top="0"
     inkscape:object-nodes="true"
     inkscape:snap-to-guides="false"
     id="base"
     pagecolor="#ffffff"
     bordercolor="#666666"
     borderopacity="1.0"
     inkscape:pageopacity="0.0"
     inkscape:pageshadow="2"
     inkscape:zoom="0.3689749"
     inkscape:cx="386.8801"
     inkscape:cy="600.5746"
     inkscape:document-units="mm"
     inkscape:current-layer="layer1"
     inkscape:document-rotation="0"
     showgrid="false"
     showborder="true"
     showguides="true"
     inkscape:guide-bbox="true"
     inkscape:window-width="1920"
     inkscape:window-height="1050"
     inkscape:window-x="0"
     inkscape:window-y="30"
     inkscape:window-maximized="1"
     inkscape:snap-global="false" />
  <metadata
     id="metadata5">
    <rdf:RDF>
      <cc:Work
         rdf:about="">
        <dc:format>image/svg+xml</dc:format>
        <dc:type
           rdf:resource="http://purl.org/dc/dcmitype/StillImage" />
        <dc:title></dc:title>
      </cc:Work>
    </rdf:RDF>
  </metadata>
  <g
     transform="translate(2363.0093,2111.9143)"
     inkscape:label="Layer 1"
     inkscape:groupmode="layer"
     id="layer1">
    <rect
       ry="54.807083"
       y="-2111.7917"
       x="-2354.4172"
       height="401.57422"
       width="392.38052"
       id="rect1611"
       style="fill:#d2d5e1;fill-opacity:1;stroke-width:0.168478"
       inkscape:export-xdpi="16.187338"
       inkscape:export-ydpi="16.187338" />
    <rect
       ry="54.807083"
       y="-2111.7917"
       x="-2354.4172"
       height="401.57422"
       width="392.38052"
       id="rect1615"
       style="fill:#d2d5e1;fill-opacity:1;stroke-width:0.168478"
       inkscape:export-xdpi="16.187338"
       inkscape:export-ydpi="16.187338" />
    <rect
       ry="54.807083"
       y="-2111.9143"
       x="-2363.0093"
       height="401.57422"
       width="392.38052"
       id="rect1617"
       style="fill:#f0f1f5;fill-opacity:1;stroke-width:0.168478"
       inkscape:export-xdpi="16.187338"
       inkscape:export-ydpi="16.187338" />
    <rect
       style="fill:#f0f1f5;fill-opacity:1;stroke-width:0.168478"
       id="rect1619"
       width="392.38052"
       height="401.57422"
       x="-2363.0093"
       y="-2111.9143"
       ry="54.807083"
       inkscape:export-xdpi="16.187338"
       inkscape:export-ydpi="16.187338" />
    <path
       d="m -2230.9658,-1765.7212 c -2.3539,0 -3.8148,-1.2236 -4.3491,-3.6326 l -39.4895,-195.2788 v -0.8032 c 0,-2.409 1.1956,-3.6326 3.5495,-3.6326 h 19.3767 c 2.6528,0 4.0839,1.2236 4.3491,3.6326 l 27.8957,132.3604 c 0.3736,0.5355 0.523,0.8032 0.7846,0.8032 0.3736,0 0.5231,-0.3826 0.7846,-0.8032 l 25.4969,-94.737 c 0.5231,-2.4091 1.9803,-3.6326 4.3491,-3.6326 h 24.4582 c 2.6154,0 3.2506,1.5295 4.3491,3.6326 l 27.7237,53.1446 c 0.3736,0.65 0.5231,0.803 0.7846,0.803 0.3737,0 0.5231,-0.3824 0.7847,-0.803 l 40.4572,-155.277 c 0.3736,-1.2238 -13.1594,-4.0495 -12.0759,-5.9233 1.0835,-1.8737 33.7804,-26.5531 35.3422,-26.0484 1.5692,0.4972 14.1383,38.1855 12.3337,41.7954 -0.411,0.8411 -11.919,-3.8853 -12.1805,-2.4475 l -48.2027,211.5036 c -0.3737,2.4091 -1.5319,2.562 -4.1511,2.562 h -20.1688 c -2.3539,0 -3.288,-1.4148 -4.3492,-3.6327 l -31.5161,-66.3179 c -0.3736,-0.8029 -0.5231,-1.2236 -0.7846,-1.2236 -0.3737,0 -0.5231,0.4207 -0.7847,1.2236 l -30.6605,109.0921 c -0.3736,2.409 -1.7187,3.6327 -4.3491,3.6327 z"
       style="font-style:normal;font-variant:normal;font-weight:normal;font-stretch:normal;font-size:10.5833px;line-height:1.25;font-family:'Barlow Condensed';-inkscape-font-specification:'Barlow Condensed, Normal';font-variant-ligatures:normal;font-variant-caps:normal;font-variant-numeric:normal;font-variant-east-asian:normal;fill:#e33f3f;fill-opacity:1;stroke:none;stroke-width:9.88573"
       id="path1584"
       sodipodi:nodetypes="cccsssccsccsssssccszsccssscscccc"
       inkscape:export-xdpi="16.187338"
       inkscape:export-ydpi="16.187338" />
    <path
       d="m -2231.8659,-1762.2458 c -2.3539,0 -2.4493,-1.2236 -2.9836,-3.6326 l -33.2656,-195.2789 v -0.8031 c 0,-2.409 1.1956,-7.0215 3.5495,-7.0215 h 19.3767 c 2.6528,0 4.0839,4.6125 4.3491,7.0215 l 27.8957,132.3604 c 0.3736,0.5355 0.523,0.8031 0.7846,0.8031 0.3736,0 0.5231,-0.3825 0.7846,-0.8031 l 25.4969,-94.737 c 0.5231,-2.4091 1.04,-7.0554 3.4088,-7.0554 h 24.4582 c 2.6154,0 4.1909,4.9523 5.2894,7.0554 l 27.7237,53.1446 c 0.3736,0.65 0.5231,0.803 0.7846,0.803 0.3737,0 0.5231,-0.3824 0.7847,-0.803 l 40.4572,-155.277 c 0.3736,-1.2238 -20.2708,-7.1217 -19.1873,-8.9954 0.5418,-0.9369 8.9666,-6.978 18.4445,-13.9487 9.0013,-6.62 19.6188,-14.5957 20.3997,-14.3433 1.5664,0.5063 17.7477,43.5012 15.9431,47.111 -0.411,0.8412 -11.919,-3.8852 -12.1805,-2.4474 l -48.2027,211.5036 c -0.3737,2.4091 -1.5319,2.5619 -4.1511,2.5619 h -26.095 c -2.3539,0 -2.5815,-1.1813 -3.5566,-3.6326 l -14.8451,-31.914 -11.5374,-34.4039 c -0.3736,-0.803 -0.5231,-1.2236 -0.7846,-1.2236 -0.3737,0 -0.5231,0.4206 -0.7847,1.2236 l -30.6605,109.092 c -0.3736,2.4091 -1.3905,3.6328 -4.0209,3.6328 z"
       style="font-style:normal;font-variant:normal;font-weight:normal;font-stretch:normal;font-size:10.5833px;line-height:1.25;font-family:'Barlow Condensed';-inkscape-font-specification:'Barlow Condensed, Normal';font-variant-ligatures:normal;font-variant-caps:normal;font-variant-numeric:normal;font-variant-east-asian:normal;fill:#7c2323;fill-opacity:1;stroke:none;stroke-width:9.88573"
       id="path1586"
       sodipodi:nodetypes="cccsssccsccsssssccssssccsssccscccc"
       inkscape:export-xdpi="16.187338"
       inkscape:export-ydpi="16.187338" />
    <path
       sodipodi:nodetypes="cccsssccsccsssssccszsccssscscccc"
       id="path1576"
       style="font-style:normal;font-variant:normal;font-weight:normal;font-stretch:normal;font-size:10.5833px;line-height:1.25;font-family:'Barlow Condensed';-inkscape-font-specification:'Barlow Condensed, Normal';font-variant-ligatures:normal;font-variant-caps:normal;font-variant-numeric:normal;font-variant-east-asian:normal;fill:#e33f3f;fill-opacity:1;stroke:none;stroke-width:9.88573"
       d="m -2230.9658,-1765.7212 c -2.3539,0 -3.8148,-1.2236 -4.3491,-3.6326 l -39.4895,-195.2788 v -0.8032 c 0,-2.409 1.1956,-3.6326 3.5495,-3.6326 h 19.3767 c 2.6528,0 4.0839,1.2236 4.3491,3.6326 l 27.8957,132.3604 c 0.3736,0.5355 0.523,0.8032 0.7846,0.8032 0.3736,0 0.5231,-0.3826 0.7846,-0.8032 l 25.4969,-94.737 c 0.5231,-2.4091 1.9803,-3.6326 4.3491,-3.6326 h 24.4582 c 2.6154,0 3.2506,1.5295 4.3491,3.6326 l 27.7237,53.1446 c 0.3736,0.65 0.5231,0.803 0.7846,0.803 0.3737,0 0.5231,-0.3824 0.7847,-0.803 l 40.4572,-155.277 c 0.3736,-1.2238 -13.1594,-4.0495 -12.0759,-5.9233 1.0835,-1.8737 33.7804,-26.5531 35.3422,-26.0484 1.5692,0.4972 14.1383,38.1855 12.3337,41.7954 -0.411,0.8411 -11.919,-3.8853 -12.1805,-2.4475 l -48.2027,211.5036 c -0.3737,2.4091 -1.5319,2.562 -4.1511,2.562 h -20.1688 c -2.3539,0 -3.288,-1.4148 -4.3492,-3.6327 l -31.5161,-66.3179 c -0.3736,-0.8029 -0.5231,-1.2236 -0.7846,-1.2236 -0.3737,0 -0.5231,0.4207 -0.7847,1.2236 l -30.6605,109.0921 c -0.3736,2.409 -1.7187,3.6327 -4.3491,3.6327 z"
       inkscape:export-xdpi="16.187338"
       inkscape:export-ydpi="16.187338" />
  </g>
</svg>
